<svg width="161" height="49" viewBox="0 0 161 49" fill="none" xmlns="http://www.w3.org/2000/svg">
<path d="M24 48.5C10.7467 48.5 0 37.7533 0 24.5H24V48.5Z" fill="#703BF7"/>
<path d="M0 0.5C13.2533 0.5 24 11.2467 24 24.5H0V0.5Z" fill="#703BF7"/>
<path d="M24 48.5C37.2533 48.5 48 37.7533 48 24.5H24V48.5Z" fill="#703BF7"/>
<path d="M48 24.5C48 11.2467 37.2533 0.5 24 0.5V24.5H48Z" fill="#703BF7"/>
<path d="M156.32 35.3603V35.8603H156.82H160H160.5V35.3603V26.6599C160.5 25.6655 160.245 24.7156 159.744 23.8168C159.242 22.8979 158.55 22.1529 157.672 21.5878C156.776 20.9911 155.754 20.6968 154.624 20.6968C153.521 20.6968 152.509 20.9578 151.599 21.4862C151.385 21.6085 151.182 21.7426 150.99 21.8884V21.4858V20.9858H150.49H147.311H146.811V21.4858V35.3603V35.8603H147.311H150.49H150.99V35.3603V28.2053V27.3536C150.99 26.8123 151.108 26.349 151.331 25.9503C151.556 25.549 151.865 25.2397 152.266 25.0149C152.665 24.7917 153.128 24.674 153.67 24.674C154.476 24.674 155.092 24.9292 155.565 25.4178L155.565 25.4178L155.571 25.4236C156.065 25.9179 156.32 26.5474 156.32 27.3536V35.3603Z" fill="white" stroke="black"/>
<path d="M140.065 35.3604V35.8604H140.565H143.745H144.245V35.3604V21.4859V20.9859H143.745H140.565H140.065V21.4859V35.3604ZM140.433 18.7369L140.433 18.737L140.443 18.7466C140.907 19.2108 141.489 19.4422 142.155 19.4422C142.834 19.4422 143.424 19.214 143.876 18.7369C144.318 18.271 144.534 17.6921 144.534 17.0345C144.534 16.3768 144.318 15.7979 143.876 15.332C143.424 14.8549 142.834 14.6267 142.155 14.6267C141.489 14.6267 140.907 14.8581 140.443 15.3224L140.442 15.3222L140.433 15.332C139.992 15.7979 139.776 16.3768 139.776 17.0345C139.776 17.6921 139.992 18.271 140.433 18.7369Z" fill="white" stroke="black"/>
<path d="M127.533 35.1571L127.533 35.1572L127.542 35.1622C128.74 35.8232 130.077 36.1494 131.541 36.1494C132.685 36.1494 133.772 35.9346 134.799 35.5034C135.834 35.0687 136.717 34.4248 137.442 33.5749L137.74 33.2259L137.418 32.8992L135.395 30.847L135.018 30.4647L134.663 30.8677C134.293 31.289 133.837 31.6107 133.29 31.8332L133.29 31.8331L133.284 31.8353C132.754 32.0577 132.166 32.1722 131.512 32.1722C130.757 32.1722 130.111 32.0152 129.56 31.7157C129.009 31.3973 128.586 30.9571 128.283 30.3859C128.236 30.296 128.191 30.2035 128.151 30.1082H137.814H138.223L138.304 29.7063C138.363 29.4101 138.404 29.1365 138.426 28.8867C138.466 28.6193 138.487 28.3587 138.487 28.1051C138.487 26.702 138.182 25.4326 137.559 24.3101C136.958 23.1928 136.115 22.3082 135.036 21.6645C133.966 21.0146 132.738 20.6968 131.368 20.6968C129.954 20.6968 128.653 21.0358 127.475 21.7179L127.475 21.7179L127.472 21.7199C126.318 22.3998 125.4 23.3289 124.721 24.4999C124.037 25.6626 123.699 26.9748 123.699 28.4231C123.699 29.8722 124.037 31.193 124.72 32.3735L124.72 32.3735L124.724 32.3791C125.422 33.55 126.36 34.4782 127.533 35.1571ZM134.202 26.5067H128.174C128.199 26.4516 128.226 26.3978 128.254 26.3452L128.254 26.3453L128.257 26.3396C128.542 25.7854 128.939 25.366 129.451 25.0689C129.96 24.7734 130.573 24.6162 131.31 24.6162C132.015 24.6162 132.567 24.7572 132.992 25.0088L132.992 25.0089L132.998 25.0128C133.449 25.2701 133.795 25.6384 134.042 26.1319C134.101 26.249 134.154 26.3739 134.202 26.5067Z" fill="white" stroke="black"/>
<path d="M116.177 35.3604V35.8604H116.677H119.856H120.356V35.3604V24.8764H123.18H123.68V24.3764V21.4859V20.9859H123.18H120.356V15.7048V15.2048H119.856H116.677H116.177V15.7048V20.9859H113.353H112.853V21.4859V24.3764V24.8764H113.353H116.177V35.3604Z" fill="white" stroke="black"/>
<path d="M99.9305 35.1177L99.9305 35.1177L99.9341 35.12C101.038 35.8074 102.267 36.1494 103.609 36.1494C104.741 36.1494 105.768 35.9122 106.678 35.4255L106.678 35.4255L106.686 35.4212C106.923 35.2886 107.147 35.1433 107.358 34.9853V35.3603V35.8603H107.858H111.038H111.538V35.3603V21.4858V20.9858H111.038H107.858H107.358V21.4858V21.8962C107.138 21.7339 106.903 21.5861 106.655 21.4529C105.762 20.944 104.741 20.6968 103.609 20.6968C102.265 20.6968 101.034 21.0499 99.9295 21.758C98.8523 22.4419 97.9956 23.3736 97.36 24.5421L97.36 24.5421L97.3585 24.5449C96.7371 25.7049 96.4321 27.0113 96.4321 28.452C96.4321 29.8749 96.7377 31.1795 97.3568 32.3558L97.3567 32.3559L97.3618 32.3651C97.9981 33.5145 98.8549 34.4351 99.9305 35.1177ZM100.698 28.4231C100.698 27.6639 100.848 27.014 101.132 26.4605C101.439 25.8993 101.84 25.4776 102.335 25.1809L102.335 25.1809L102.339 25.1784C102.85 24.8652 103.441 24.7029 104.13 24.7029C104.84 24.7029 105.428 24.8665 105.914 25.1745L105.922 25.1797L105.931 25.1845C106.443 25.4817 106.839 25.9011 107.125 26.4553C107.411 27.0099 107.561 27.6615 107.561 28.4231C107.561 29.5499 107.23 30.4341 106.596 31.1183L106.596 31.1182L106.591 31.1232C105.983 31.7965 105.18 32.1433 104.13 32.1433C103.44 32.1433 102.847 31.9898 102.337 31.6954C101.84 31.3788 101.438 30.946 101.132 30.3857C100.848 29.8322 100.698 29.1823 100.698 28.4231Z" fill="white" stroke="black"/>
<path d="M88.8798 35.3604V35.8604H89.3798H92.5593H93.0593V35.3604V24.8764H95.8834H96.3834V24.3764V21.4859V20.9859H95.8834H93.0593V15.7048V15.2048H92.5593H89.3798H88.8798V15.7048V20.9859H86.0557H85.5557V21.4859V24.3764V24.8764H86.0557H88.8798V35.3604Z" fill="white" stroke="black"/>
<path d="M77.0197 35.8396L77.0197 35.8398L77.0317 35.843C77.7891 36.0477 78.5749 36.1494 79.3879 36.1494C81.0865 36.1494 82.4939 35.734 83.5531 34.8478C84.6227 33.9528 85.1486 32.7367 85.1486 31.2558C85.1486 30.3451 84.963 29.556 84.5467 28.9297C84.1574 28.3253 83.647 27.8465 83.0205 27.499C82.4469 27.1518 81.8329 26.8859 81.1801 26.7014C80.5804 26.5081 79.9991 26.3338 79.4364 26.1785C78.926 26.0325 78.5287 25.8652 78.2323 25.684C78.0241 25.5568 77.9512 25.4146 77.9512 25.2146C77.9512 25.048 78.0099 24.927 78.2144 24.8134C78.455 24.6797 78.8487 24.5873 79.4457 24.5873C80.0576 24.5873 80.5788 24.7007 81.0209 24.9136C81.4671 25.1284 81.8728 25.4545 82.2363 25.9045L82.5857 26.3371L82.9788 25.9439L85.0022 23.9206L85.3052 23.6176L85.0522 23.2718C84.4256 22.4154 83.6368 21.7717 82.69 21.3496C81.7647 20.9093 80.708 20.6968 79.5324 20.6968C78.4192 20.6968 77.4307 20.8788 76.5812 21.2611L76.5812 21.2611L76.5769 21.2631C75.7487 21.6453 75.0866 22.1948 74.6072 22.9139L74.6071 22.9138L74.6014 22.9228C74.1372 23.6522 73.9162 24.5102 73.9162 25.4748C73.9162 26.3706 74.1036 27.1502 74.5205 27.7755C74.9101 28.3599 75.4107 28.8281 76.0181 29.1752L76.0271 29.1804L76.0364 29.1852C76.6238 29.489 77.2321 29.7324 77.861 29.9149L77.861 29.915L77.8651 29.9161C78.4765 30.0881 79.0487 30.2598 79.5817 30.4311L79.5917 30.4343L79.6018 30.4371C80.1278 30.5822 80.5269 30.7565 80.8159 30.9492C81.0209 31.0858 81.1136 31.2558 81.1136 31.516C81.1136 31.7325 81.0342 31.8806 80.8139 32.0082C80.5595 32.1555 80.1239 32.2589 79.4457 32.2589C78.7168 32.2589 78.0744 32.1352 77.5105 31.8975C76.9662 31.6409 76.4752 31.2633 76.0378 30.7559L75.6863 30.3481L75.3056 30.7288L73.2822 32.7522L72.9616 33.0728L73.2494 33.4231C73.7261 34.0034 74.2855 34.5004 74.9256 34.9133L74.9255 34.9135L74.9353 34.9195C75.5721 35.3097 76.2675 35.616 77.0197 35.8396Z" fill="white" stroke="black"/>
<path d="M57.7339 35.3604V35.8604H58.2339H60.0174H60.5174H61.558H62.058H71.8483H72.3483V35.3604V32.3253V31.8253H71.8483H62.058V26.9865H70.8655H71.3655V26.4865V23.567V23.067H70.8655H62.058V18.6618H71.7037H72.2037V18.1618V15.1267V14.6267H71.7037H62.058H61.558H60.5174H60.0174H58.2339H57.7339V15.1267V35.3604Z" fill="white" stroke="black"/>
</svg>
