<svg width="16" height="18" viewBox="0 0 16 18" fill="none" xmlns="http://www.w3.org/2000/svg">
<path fill-rule="evenodd" clip-rule="evenodd" d="M10.1794 0.329104C10.4304 0.469056 10.5536 0.762166 10.478 1.03945L8.81829 7.125H14.875C15.1239 7.125 15.349 7.27265 15.4482 7.50091C15.5474 7.72916 15.5017 7.99451 15.3319 8.17645L6.58192 17.5514C6.38582 17.7616 6.0717 17.8108 5.82067 17.6709C5.56964 17.5309 5.44641 17.2378 5.52204 16.9605L7.18173 10.875H1.12501C0.876141 10.875 0.650985 10.7273 0.551797 10.4991C0.452609 10.2708 0.498294 10.0055 0.668104 9.82355L9.4181 0.448549C9.61421 0.238439 9.92832 0.189151 10.1794 0.329104Z" fill="white"/>
</svg>
